# xmcd CD database file
#
# Track frame offsets:
#	150
#	31030
#	50230
#	81230
#	106758
#	145688
#	172620
#	234503
#	260398
#	312580
#
# Disc length: 4749 seconds
#
# Revision: 0
# Processed by: cddbd v1.5.1PL2 Copyright (c) Steve Scherf et al.
# Submitted via: CDex 1.51
#
DISCID=78128b0a
DTITLE=John Coltrane - Coltrane's Sound - My Favorite Things
DYEAR=1960
DGENRE=Jazz
TTITLE0=The Night Has A Thousand Eyes
TTITLE1=Central Park West
TTITLE2=LIberia
TTITLE3=Body And Soul
TTITLE4=Equinox
TTITLE5=Sattelite
TTITLE6=My Favorite Things
TTITLE7=Everytime We Say Goodbye
TTITLE8=Summertime
TTITLE9=But Not For Me
EXTD=YEAR: 1960
EXTT0=
EXTT1=
EXTT2=
EXTT3=
EXTT4=
EXTT5=
EXTT6=
EXTT7=
EXTT8=
EXTT9=
PLAYORDER=
